:version 1.10
:name ASF
:units
  mass 1
  length 1
  angle deg
:documentation
  ASF file generated by Kaydara
:root
  axis xyz
  order  tx ty tz rx ry rz
  position 0 0 0
  orientation 0 0 0
:bonedata
  begin
    id 1
    name RightUpLegDummy
    direction -0.718183 -0.695806 0.00816078
    length 4.904
    axis 0 0 0 xyz
  end
  begin
    id 2
    name RightUpLeg
    direction 3.53989e-006 -0.995788 0.0916897
    length 17.4976
    axis -3.49089 -0.000906621 0.000287158 xyz
    dof rx ry rz
  end
  begin
    id 3
    name RightLeg
    direction 0.00371093 -0.995096 -0.0988418
    length 16.5821
    axis 3.68512 0.0193738 -0.131023 xyz
    dof rx ry rz
  end
  begin
    id 4
    name RightFoot
    direction 0.000791514 -0.46099 0.887405
    length 3.77069
    axis 4.84075e-005 -0.120479 -0.188788 xyz
    dof rx ry rz
  end
  begin
    id 5
    name RightToes
    direction 0.00124746 -0.014064 0.9999
    length 3.85082
    axis 0.00048216 0.542163 -0.142577 xyz
    dof rx ry rz
  end
  begin
    id 6
    name SpineDummy
    direction 8.36599e-015 1 5.97571e-016
    length 4.6813
    axis 0 0 0 xyz
  end
  begin
    id 7
    name Spine
    direction -4.63632e-008 0.999988 0.00495137
    length 10.1015
    axis -0.00138897 0.000121419 3.25764e-006 xyz
    dof rx ry rz
  end
  begin
    id 8
    name Spine1
    direction 0 0 0
    length 0
    axis -0.00138896 0.000121452 2.39764e-006 xyz
    dof rx ry rz
  end
  begin
    id 9
    name HEadDummy
    direction -3.91456e-008 0.999999 0.00127422
    length 3.43865
    axis -0.00138896 0.000121452 2.39764e-006 xyz
  end
  begin
    id 10
    name HEad
    direction -0.0222688 0.980941 0.193023
    length 5.12695
    axis -0.00138895 0.000121452 2.39764e-006 xyz
    dof rx ry rz
  end
  begin
    id 11
    name LeftShoulder1Dummy
    direction 0.998891 -0.0402508 -0.0244456
    length 3.5433
    axis -0.00138896 0.000121452 2.39764e-006 xyz
  end
  begin
    id 12
    name LeftShoulder1
    direction 0.99951 -0.000327743 0.0313091
    length 4.05031
    axis -0.00138896 0.000121452 2.39764e-006 xyz
    dof rx ry rz
  end
  begin
    id 13
    name LeftArm
    direction 0.998561 -0.00100054 -0.0536182
    length 10.3537
    axis -23.1894 0.134784 0.96751 xyz
    dof rx ry rz
  end
  begin
    id 14
    name LeftForeArm
    direction 0.998903 0.00866434 0.046012
    length 8.70632
    axis -9.91835 -0.06569 -0.177792 xyz
    dof rx ry rz
  end
  begin
    id 15
    name LeftHand
    direction 0.992938 -0.0411636 0.11126
    length 5.32135
    axis -0.00960227 -0.00340091 0.185174 xyz
    dof rx ry rz
  end
  begin
    id 16
    name RightShoulderDummy
    direction -0.998891 -0.0402509 -0.0244414
    length 3.5433
    axis -0.00138896 0.000121452 2.39764e-006 xyz
  end
  begin
    id 17
    name RightShoulder
    direction -0.99951 -0.000327827 0.0313133
    length 4.05031
    axis 0.215806 0.000203644 -0.00680151 xyz
    dof rx ry rz
  end
  begin
    id 18
    name RightArm
    direction -0.998573 -0.000999583 -0.053403
    length 10.3947
    axis -23.2009 -0.134239 -0.9641 xyz
    dof rx ry rz
  end
  begin
    id 19
    name RightForeArm
    direction -0.998898 0.00868026 0.0461306
    length 8.68355
    axis -9.92322 0.0658061 0.178869 xyz
    dof rx ry rz
  end
  begin
    id 20
    name RightHand
    direction -0.992843 -0.0414603 0.112003
    length 5.28593
    axis -0.00960634 0.00330671 -0.185226 xyz
    dof rx ry rz
  end
  begin
    id 21
    name LeftUpLegDummy
    direction 0.718183 -0.695806 0.00816078
    length 4.904
    axis 0 0 0 xyz
  end
  begin
    id 22
    name LeftUpLeg
    direction -6.8115e-006 -0.995793 0.0916336
    length 17.4976
    axis -3.48766 0.00143441 -0.000523914 xyz
    dof rx ry rz
  end
  begin
    id 23
    name LeftLeg
    direction -0.00601357 -0.995091 -0.0987824
    length 16.5821
    axis 3.68177 -0.00654038 -0.00028478 xyz
    dof rx ry rz
  end
  begin
    id 24
    name LeftFoot
    direction -0.00417578 -0.460984 0.887399
    length 3.77069
    axis 1.87232e-006 4.66002e-005 -8.1837e-006 xyz
    dof rx ry rz
  end
  begin
    id 25
    name LeftToes
    direction 0.00818058 -0.00485161 0.999955
    length 3.85048
    axis 1.06246e-005 4.65855e-005 -8.18502e-006 xyz
    dof rx ry rz
  end
:hierarchy
  begin
    root RightUpLegDummy SpineDummy LeftUpLegDummy
    RightUpLegDummy RightUpLeg
    RightUpLeg RightLeg
    RightLeg RightFoot
    RightFoot RightToes
    SpineDummy Spine
    Spine Spine1
    Spine1 HEadDummy LeftShoulder1Dummy RightShoulderDummy
    HEadDummy HEad
    LeftShoulder1Dummy LeftShoulder1
    LeftShoulder1 LeftArm
    LeftArm LeftForeArm
    LeftForeArm LeftHand
    RightShoulderDummy RightShoulder
    RightShoulder RightArm
    RightArm RightForeArm
    RightForeArm RightHand
    LeftUpLegDummy LeftUpLeg
    LeftUpLeg LeftLeg
    LeftLeg LeftFoot
    LeftFoot LeftToes
  end

:SAMPLES-PER-SECOND 30
:FULLY-SPECIFIED
:DEGREES
1
root  -5.71961 39.1804 12.5487 -177.375 3.12918 177.574
RightUpLeg  -12.2968 -12.4162 -13.2377
RightLeg  13.1495 -20.7998 -5.02755
RightFoot  4.17 -1.75058 13.0132
RightToes  -5.8209e-011 0 -3.6325e-017
Spine  9.68367 0.409089 -5.78324
Spine1  26.5053 -1.65928 3.5628
HEad  -17.9717 5.15479 -1.78827
LeftShoulder1  1.92128 -5.808 -13.7418
LeftArm  5.93819 0.703499 -57.8882
LeftForeArm  50.9681 -77.4076 -54.0535
LeftHand  -0.827259 0.0985361 18.1743
RightShoulder  0.956467 1.11921 13.8304
RightArm  4.30438 -14.2889 56.5693
RightForeArm  140.221 76.7526 133.124
RightHand  -0.486768 3.80536 -6.40097
LeftUpLeg  -14.2009 -4.43597 4.97981
LeftLeg  17.8246 3.39268 1.56911
LeftFoot  -6.05383 0.407683 -8.0354
LeftToes  6.82088e-011 -2.45093e-011 5.71991e-013
2
root  -5.71885 39.181 12.5128 -177.408 3.14903 177.641
RightUpLeg  -12.1856 -12.3881 -13.1931
RightLeg  13.1112 -20.8234 -4.99801
RightFoot  4.17333 -1.73404 12.8904
RightToes  -5.8209e-011 0 -3.6325e-017
Spine  9.57446 0.388133 -5.64755
Spine1  26.5771 -1.60227 3.42754
HEad  -17.9669 5.12653 -1.75922
LeftShoulder1  1.92128 -5.72443 -13.8885
LeftArm  6.17794 1.25801 -57.7931
LeftForeArm  51.1939 -77.4659 -54.5226
LeftHand  -0.855 0.116751 18.8354
RightShoulder  0.948153 1.08067 13.8229
RightArm  4.08166 -14.2177 56.4446
RightForeArm  140.445 76.6716 133.472
RightHand  -0.507252 3.9371 -6.57264
LeftUpLeg  -14.1383 -4.47945 5.04545
LeftLeg  17.9124 3.42835 1.58211
LeftFoot  -6.13842 0.401846 -8.02668
LeftToes  6.82088e-011 -2.45093e-011 5.71991e-013
3
root  -5.71259 39.1843 12.4449 -177.573 3.28481 177.732
RightUpLeg  -11.9129 -12.319 -13.1339
RightLeg  13.0549 -20.7627 -4.95091
RightFoot  4.14167 -1.70045 12.671
RightToes  -5.8209e-011 0 -3.6325e-017
Spine  9.49298 0.39698 -5.50705
Spine1  26.6628 -1.49767 3.26415
HEad  -17.9337 5.10052 -1.76876
LeftShoulder1  1.92286 -5.59954 -14.2122
LeftArm  6.84418 2.39383 -57.5433
LeftForeArm  51.7988 -77.5922 -55.5221
LeftHand  -0.891806 0.149907 19.7566
RightShoulder  0.928751 0.969645 13.9134
RightArm  3.68601 -14.069 56.1726
RightForeArm  140.682 76.5644 133.913
RightHand  -0.547077 4.09729 -6.95749
LeftUpLeg  -13.8628 -4.45198 5.1304
LeftLeg  18.0182 3.49201 1.60584
LeftFoot  -6.29335 0.390909 -8.00463
LeftToes  6.82088e-011 -2.45093e-011 5.71991e-013
4
root  -5.69453 39.1897 12.3732 -177.774 3.51353 177.779
RightUpLeg  -11.6293 -12.2719 -13.1011
RightLeg  13.0027 -20.5758 -4.88203
RightFoot  4.06246 -1.67916 12.5769
RightToes  -5.8209e-011 0 -3.6325e-017
Spine  9.4192 0.42096 -5.48198
Spine1  26.743 -1.40855 3.1464
HEad  -17.8969 5.16033 -1.8374
LeftShoulder1  1.9309 -5.51146 -14.5428
LeftArm  7.66089 3.71734 -57.3439
LeftForeArm  52.7128 -77.7418 -56.6753
LeftHand  -0.912469 0.158651 20.2377
RightShoulder  0.910176 0.843891 14.108
RightArm  3.27764 -13.8971 55.908
RightForeArm  140.568 76.5072 134.09
RightHand  -0.594534 4.15757 -7.49263
LeftUpLeg  -13.4821 -4.38553 5.18233
LeftLeg  18.0436 3.6138 1.65014
LeftFoot  -6.43991 0.381598 -8.0066
LeftToes  6.82088e-011 -2.45093e-011 5.71991e-013
5
root  -5.66971 39.1963 12.3156 -177.876 3.76152 177.772
RightUpLeg  -11.4886 -12.2735 -13.0909
RightLeg  12.9601 -20.3439 -4.79975
RightFoot  3.97788 -1.67923 12.6427
RightToes  -5.8209e-011 0 -3.6325e-017
Spine  9.28144 0.416766 -5.52734
Spine1  26.7986 -1.35894 3.03184
HEad  -17.9021 5.35098 -1.94497
LeftShoulder1  1.9466 -5.48956 -14.7913
LeftArm  8.35578 4.90947 -57.3545
LeftForeArm  53.3099 -77.8281 -57.3405
LeftHand  -0.940952 0.109131 20.6641
RightShoulder  0.902296 0.775483 14.2793
RightArm  2.86588 -13.8045 55.7319
RightForeArm  140.163 76.4564 134.178
RightHand  -0.640508 4.13843 -8.06411
LeftUpLeg  -13.1829 -4.34905 5.19727
LeftLeg  17.9745 3.7869 1.71135
LeftFoot  -6.53125 0.377696 -8.05282
LeftToes  6.82088e-011 -2.45093e-011 5.71991e-013
6
root  -5.64493 39.2039 12.2749 -177.853 4.03265 177.732
RightUpLeg  -11.5311 -12.2616 -13.0688
RightLeg  12.9279 -20.138 -4.7445
RightFoot  3.93104 -1.67828 12.6723
RightToes  -5.8209e-011 0 -3.6325e-017
Spine  9.08636 0.390992 -5.55394
Spine1  26.819 -1.31782 2.88792
HEad  -17.9662 5.62593 -2.10478
LeftShoulder1  1.97223 -5.52633 -15.0058
LeftArm  8.94716 5.78835 -57.5024
LeftForeArm  52.8334 -77.7651 -56.8805
LeftHand  -0.978885 0.0217429 21.1491
RightShoulder  0.900583 0.769034 14.3469
RightArm  2.35852 -13.8569 55.6377
RightForeArm  139.79 76.3666 134.408
RightHand  -0.679753 4.14858 -8.5312
LeftUpLeg  -13.0144 -4.25403 5.18713
LeftLeg  17.8428 3.92763 1.7607
LeftFoot  -6.57351 0.377898 -8.12285
LeftToes  6.82088e-011 -2.45093e-011 5.71991e-013
7
root  -5.61991 39.2113 12.2436 -177.771 4.35789 177.692
RightUpLeg  -11.6772 -12.1682 -13.0048
RightLeg  12.8963 -19.9516 -4.73291
RightFoot  3.91084 -1.66522 12.5916
RightToes  -5.8209e-011 0 -3.6325e-017
Spine  8.85152 0.367738 -5.52726
Spine1  26.8742 -1.26149 2.72959
HEad  -18.0819 5.89795 -2.31591
LeftShoulder1  2.00362 -5.59152 -15.2124
LeftArm  9.50253 6.2953 -57.6697
LeftForeArm  51.354 -77.5456 -55.2818
LeftHand  -0.957106 -0.0187507 20.5253
RightShoulder  0.901727 0.778454 14.3831
RightArm  1.73891 -13.9674 55.6443
RightForeArm  139.462 76.293 134.589
RightHand  -0.713161 4.25593 -8.84273
LeftUpLeg  -12.908 -4.02005 5.18072
LeftLeg  17.6948 4.00177 1.78677
LeftFoot  -6.6052 0.37879 -8.1941
LeftToes  6.82088e-011 -2.45093e-011 5.71991e-013
